<svg xmlns="http://www.w3.org/2000/svg" xmlns:xlink="http://www.w3.org/1999/xlink" width="2000" zoomAndPan="magnify" viewBox="0 0 1500 322.499991" height="430" preserveAspectRatio="xMidYMid meet" version="1.0"><defs><g/><clipPath id="a0b135e3de"><path d="M 0.683594 0.945312 L 1207.933594 0.945312 L 1207.933594 239.613281 L 0.683594 239.613281 Z M 0.683594 0.945312 " clip-rule="nonzero"/></clipPath><clipPath id="cf401f46bf"><path d="M 0.6875 4 L 184 4 L 184 239.613281 L 0.6875 239.613281 Z M 0.6875 4 " clip-rule="nonzero"/></clipPath><clipPath id="03841eb2bc"><path d="M 140 1 L 289.917969 1 L 289.917969 150 L 140 150 Z M 140 1 " clip-rule="nonzero"/></clipPath><clipPath id="146a0461f2"><path d="M 303 36 L 1207.933594 36 L 1207.933594 239.613281 L 303 239.613281 Z M 303 36 " clip-rule="nonzero"/></clipPath><clipPath id="ad2494aa15"><path d="M 69 0.410156 L 154 0.410156 L 154 151 L 69 151 Z M 69 0.410156 " clip-rule="nonzero"/></clipPath><clipPath id="57e853ceaf"><path d="M 419 0.410156 L 518 0.410156 L 518 151 L 419 151 Z M 419 0.410156 " clip-rule="nonzero"/></clipPath><clipPath id="071feeb016"><path d="M 667 0.410156 L 682 0.410156 L 682 151 L 667 151 Z M 667 0.410156 " clip-rule="nonzero"/></clipPath><clipPath id="d8c448fc47"><rect x="0" width="905" y="0" height="204"/></clipPath><clipPath id="9d57e968ee"><rect x="0" width="1208" y="0" height="240"/></clipPath><clipPath id="70feb82e96"><rect x="0" width="1208" y="0" height="240"/></clipPath></defs><g transform="matrix(1, 0, 0, 1, 127, 35)"><g clip-path="url(#70feb82e96)"><g clip-path="url(#a0b135e3de)"><g transform="matrix(1, 0, 0, 1, -0.000000000000028422, -0.000000000000007105)"><g clip-path="url(#9d57e968ee)"><g clip-path="url(#cf401f46bf)"><path fill="#dbb82d" d="M 102.4375 196.855469 C 88.097656 193.65625 79.054688 182.269531 77.066406 169.804688 C 76.644531 167.179688 76.539062 164.503906 76.761719 161.84375 L 76.761719 148.925781 L 107.328125 148.925781 C 107.328125 130.359375 94.46875 114.652344 76.761719 109.4375 L 76.761719 93.703125 C 76.691406 93.421875 76.628906 93.132812 76.558594 92.839844 L 76.558594 4.105469 L 35.222656 4.105469 L 35.222656 91.195312 C 35.144531 92.371094 35.019531 93.351562 35.019531 94.339844 C 35.019531 98.753906 35.035156 103.171875 35.035156 107.585938 L 29.597656 107.585938 C 27.765625 107.507812 26.226562 107.386719 24.683594 107.386719 C 16.683594 107.386719 8.691406 107.378906 0.6875 107.371094 L 0.6875 125.328125 C 0.6875 138.46875 11.882812 149.117188 25.6875 149.117188 C 26.128906 149.046875 26.578125 148.984375 27.027344 148.917969 L 35.0625 148.917969 C 35.078125 155.230469 35.042969 161.546875 35.078125 167.855469 C 35.097656 172.277344 35.726562 176.746094 36.625 181.085938 C 43.996094 216.753906 78.703125 243.113281 116.574219 238.933594 C 145.847656 235.707031 170.851562 215.863281 179.621094 187.824219 C 181.886719 180.570312 183.425781 173.15625 183.011719 165.421875 L 141.433594 165.421875 C 139.609375 191.546875 116.863281 200.085938 102.4375 196.855469 Z M 102.4375 196.855469 " fill-opacity="1" fill-rule="nonzero"/></g><g clip-path="url(#03841eb2bc)"><path fill="#dbb82d" d="M 287.78125 59.476562 C 280.710938 24.679688 246.71875 -2.632812 207.570312 1.457031 C 174.976562 4.863281 143.890625 30.90625 141.613281 69.613281 C 140.058594 95.929688 141.316406 122.417969 141.316406 149.125 L 229.417969 149.125 L 229.417969 107.785156 L 183.308594 107.785156 C 183.308594 97.484375 183.316406 87.1875 183.332031 76.894531 C 183.335938 74.21875 183.28125 71.492188 183.765625 68.886719 C 186.382812 54.695312 199.476562 43.375 213.46875 43.023438 C 229.601562 42.609375 243.046875 52.460938 246.667969 67.414062 C 247.285156 69.949219 247.617188 72.5625 248.042969 74.917969 L 289.84375 74.917969 C 289.148438 69.507812 288.789062 64.421875 287.78125 59.476562 Z M 287.78125 59.476562 " fill-opacity="1" fill-rule="nonzero"/></g><g clip-path="url(#146a0461f2)"><g transform="matrix(1, 0, 0, 1, 303, 36)"><g clip-path="url(#d8c448fc47)"><g fill="#545454" fill-opacity="1"><g transform="translate(1.301591, 150.513913)"><g><path d="M 61.171875 -63.8125 L 61.171875 -50.234375 L 6.078125 -50.234375 L 6.078125 -63.8125 Z M 61.171875 -63.8125 "/></g></g></g><g clip-path="url(#ad2494aa15)"><g fill="#545454" fill-opacity="1"><g transform="translate(68.55553, 150.513913)"><g><path d="M 1.21875 -136.328125 L 1.21875 -149.90625 L 84.875 -149.90625 L 84.875 -136.328125 L 50.640625 -136.328125 L 50.640625 0 L 35.65625 0 L 35.65625 -136.328125 Z M 1.21875 -136.328125 "/></g></g></g></g><g fill="#545454" fill-opacity="1"><g transform="translate(144.317233, 150.513913)"><g><path d="M 65.234375 -10.125 C 74.003906 -10.125 82.070312 -12.488281 89.4375 -17.21875 C 96.800781 -21.945312 101.96875 -28.296875 104.9375 -36.265625 L 119.921875 -36.265625 C 115.734375 -24.515625 108.609375 -15.09375 98.546875 -8 C 88.492188 -0.90625 77.457031 2.640625 65.4375 2.640625 C 55.03125 2.640625 45.40625 0.0703125 36.5625 -5.0625 C 27.71875 -10.195312 20.695312 -17.21875 15.5 -26.125 C 10.300781 -35.039062 7.703125 -44.765625 7.703125 -55.296875 C 7.703125 -65.835938 10.332031 -75.5625 15.59375 -84.46875 C 20.863281 -93.382812 27.921875 -100.472656 36.765625 -105.734375 C 45.609375 -111.003906 55.097656 -113.640625 65.234375 -113.640625 C 76.035156 -113.640625 85.859375 -110.867188 94.703125 -105.328125 C 103.546875 -99.796875 110.535156 -92.472656 115.671875 -83.359375 C 120.804688 -74.242188 123.375 -64.625 123.375 -54.5 L 123.171875 -50.234375 L 22.28125 -50.234375 C 22.6875 -43.078125 24.945312 -36.425781 29.0625 -30.28125 C 33.1875 -24.132812 38.488281 -19.238281 44.96875 -15.59375 C 51.457031 -11.945312 58.210938 -10.125 65.234375 -10.125 Z M 65.234375 -100.890625 C 58.347656 -100.890625 51.863281 -99.300781 45.78125 -96.125 C 39.707031 -92.945312 34.578125 -88.488281 30.390625 -82.75 C 26.203125 -77.007812 23.5 -70.425781 22.28125 -63 L 108.78125 -63 C 106.757812 -74.207031 101.726562 -83.320312 93.6875 -90.34375 C 85.65625 -97.375 76.171875 -100.890625 65.234375 -100.890625 Z M 65.234375 -100.890625 "/></g></g></g><g fill="#545454" fill-opacity="1"><g transform="translate(275.989093, 150.513913)"><g><path d="M 67.859375 2.640625 C 56.921875 2.640625 46.894531 0.109375 37.78125 -4.953125 C 28.664062 -10.023438 21.472656 -17.050781 16.203125 -26.03125 C 10.941406 -35.007812 8.3125 -45.171875 8.3125 -56.515625 C 8.3125 -66.515625 11.007812 -75.898438 16.40625 -84.671875 C 21.8125 -93.453125 29.070312 -100.472656 38.1875 -105.734375 C 47.300781 -111.003906 57.191406 -113.640625 67.859375 -113.640625 C 80.148438 -113.640625 91.289062 -110.398438 101.28125 -103.921875 C 111.28125 -97.441406 118.507812 -88.597656 122.96875 -77.390625 L 107.359375 -77.390625 C 103.304688 -84.953125 97.800781 -90.757812 90.84375 -94.8125 C 83.894531 -98.863281 76.367188 -100.890625 68.265625 -100.890625 C 59.890625 -100.890625 52.191406 -98.863281 45.171875 -94.8125 C 38.148438 -90.757812 32.613281 -85.285156 28.5625 -78.390625 C 24.507812 -71.503906 22.484375 -63.941406 22.484375 -55.703125 C 22.484375 -47.335938 24.507812 -39.675781 28.5625 -32.71875 C 32.613281 -25.757812 38.113281 -20.253906 45.0625 -16.203125 C 52.019531 -12.148438 59.753906 -10.125 68.265625 -10.125 C 76.773438 -10.125 84.4375 -12.046875 91.25 -15.890625 C 98.070312 -19.742188 103.441406 -25.316406 107.359375 -32.609375 L 122.96875 -32.609375 C 111.082031 -9.109375 92.710938 2.640625 67.859375 2.640625 Z M 67.859375 2.640625 "/></g></g></g><g clip-path="url(#57e853ceaf)"><g fill="#545454" fill-opacity="1"><g transform="translate(407.053246, 150.513913)"><g><path d="M 61.375 -100.890625 C 50.84375 -100.890625 42.4375 -97.304688 36.15625 -90.140625 C 29.875 -82.984375 26.734375 -73.867188 26.734375 -62.796875 L 26.734375 0 L 12.5625 0 L 12.5625 -149.90625 L 26.734375 -149.90625 L 26.734375 -96.625 L 27.140625 -96.625 C 30.648438 -102.03125 35.410156 -106.21875 41.421875 -109.1875 C 47.429688 -112.15625 54.015625 -113.640625 61.171875 -113.640625 C 71.171875 -113.640625 79.847656 -111.476562 87.203125 -107.15625 C 94.566406 -102.84375 100.207031 -96.769531 104.125 -88.9375 C 108.039062 -81.101562 110 -72.050781 110 -61.78125 L 110 0 L 95.8125 0 L 95.8125 -61.78125 C 95.8125 -69.882812 94.328125 -76.875 91.359375 -82.75 C 88.390625 -88.625 84.269531 -93.113281 79 -96.21875 C 73.738281 -99.332031 67.863281 -100.890625 61.375 -100.890625 Z M 61.375 -100.890625 "/></g></g></g></g><g fill="#545454" fill-opacity="1"><g transform="translate(530.622223, 150.513913)"><g><path d="M 61.984375 -100.890625 C 51.453125 -100.890625 43.046875 -97.304688 36.765625 -90.140625 C 30.484375 -82.984375 27.34375 -73.867188 27.34375 -62.796875 L 27.34375 0 L 13.171875 0 L 13.171875 -110.8125 L 27.34375 -110.8125 L 27.34375 -96.625 L 27.75 -96.625 C 31.257812 -102.03125 36.019531 -106.21875 42.03125 -109.1875 C 48.039062 -112.15625 54.625 -113.640625 61.78125 -113.640625 C 71.78125 -113.640625 80.457031 -111.476562 87.8125 -107.15625 C 95.175781 -102.84375 100.816406 -96.769531 104.734375 -88.9375 C 108.648438 -81.101562 110.609375 -72.050781 110.609375 -61.78125 L 110.609375 0 L 96.421875 0 L 96.421875 -61.78125 C 96.421875 -69.882812 94.9375 -76.875 91.96875 -82.75 C 89 -88.625 84.878906 -93.113281 79.609375 -96.21875 C 74.347656 -99.332031 68.472656 -100.890625 61.984375 -100.890625 Z M 61.984375 -100.890625 "/></g></g></g><g clip-path="url(#071feeb016)"><g fill="#545454" fill-opacity="1"><g transform="translate(654.191199, 150.513913)"><g><path d="M 27.34375 -149.90625 L 27.34375 -124.390625 L 13.171875 -124.390625 L 13.171875 -149.90625 Z M 27.34375 -110.8125 L 27.34375 0 L 13.171875 0 L 13.171875 -110.8125 Z M 27.34375 -110.8125 "/></g></g></g></g><g fill="#545454" fill-opacity="1"><g transform="translate(694.705576, 150.513913)"><g><path d="M 67.859375 2.640625 C 56.921875 2.640625 46.894531 0.109375 37.78125 -4.953125 C 28.664062 -10.023438 21.472656 -17.050781 16.203125 -26.03125 C 10.941406 -35.007812 8.3125 -45.171875 8.3125 -56.515625 C 8.3125 -66.515625 11.007812 -75.898438 16.40625 -84.671875 C 21.8125 -93.453125 29.070312 -100.472656 38.1875 -105.734375 C 47.300781 -111.003906 57.191406 -113.640625 67.859375 -113.640625 C 80.148438 -113.640625 91.289062 -110.398438 101.28125 -103.921875 C 111.28125 -97.441406 118.507812 -88.597656 122.96875 -77.390625 L 107.359375 -77.390625 C 103.304688 -84.953125 97.800781 -90.757812 90.84375 -94.8125 C 83.894531 -98.863281 76.367188 -100.890625 68.265625 -100.890625 C 59.890625 -100.890625 52.191406 -98.863281 45.171875 -94.8125 C 38.148438 -90.757812 32.613281 -85.285156 28.5625 -78.390625 C 24.507812 -71.503906 22.484375 -63.941406 22.484375 -55.703125 C 22.484375 -47.335938 24.507812 -39.675781 28.5625 -32.71875 C 32.613281 -25.757812 38.113281 -20.253906 45.0625 -16.203125 C 52.019531 -12.148438 59.753906 -10.125 68.265625 -10.125 C 76.773438 -10.125 84.4375 -12.046875 91.25 -15.890625 C 98.070312 -19.742188 103.441406 -25.316406 107.359375 -32.609375 L 122.96875 -32.609375 C 111.082031 -9.109375 92.710938 2.640625 67.859375 2.640625 Z M 67.859375 2.640625 "/></g></g></g><g fill="#545454" fill-opacity="1"><g transform="translate(825.769729, 150.513913)"><g><path d="M 39.09375 -100.890625 C 34.363281 -100.890625 30.378906 -99.300781 27.140625 -96.125 C 23.898438 -92.945312 22.28125 -88.992188 22.28125 -84.265625 C 22.28125 -80.210938 23.800781 -76.703125 26.84375 -73.734375 C 29.882812 -70.765625 34.78125 -68.203125 41.53125 -66.046875 C 50.3125 -63.203125 57.03125 -60.054688 61.6875 -56.609375 C 66.34375 -53.171875 69.515625 -49.390625 71.203125 -45.265625 C 72.890625 -41.148438 73.734375 -36.257812 73.734375 -30.59375 C 73.734375 -20.457031 70.59375 -12.382812 64.3125 -6.375 C 58.039062 -0.363281 49.566406 2.640625 38.890625 2.640625 C 32.546875 2.640625 26.773438 1.222656 21.578125 -1.609375 C 16.378906 -4.453125 12.289062 -8.503906 9.3125 -13.765625 C 6.34375 -19.035156 4.859375 -25.113281 4.859375 -32 L 4.859375 -32.8125 L 19.046875 -32.8125 C 19.179688 -25.519531 21.003906 -19.914062 24.515625 -16 C 28.023438 -12.082031 32.816406 -10.125 38.890625 -10.125 C 45.378906 -10.125 50.445312 -11.84375 54.09375 -15.28125 C 57.738281 -18.726562 59.5625 -23.628906 59.5625 -29.984375 C 59.5625 -35.109375 57.9375 -39.328125 54.6875 -42.640625 C 51.445312 -45.953125 46.519531 -48.820312 39.90625 -51.25 C 32.207031 -54.082031 26.226562 -56.644531 21.96875 -58.9375 C 17.71875 -61.238281 14.34375 -64.28125 11.84375 -68.0625 C 9.351562 -71.84375 8.109375 -76.773438 8.109375 -82.859375 C 8.109375 -91.765625 11.078125 -99.117188 17.015625 -104.921875 C 22.960938 -110.734375 30.523438 -113.640625 39.703125 -113.640625 C 45.242188 -113.640625 50.304688 -112.359375 54.890625 -109.796875 C 59.484375 -107.234375 63.128906 -103.65625 65.828125 -99.0625 C 68.535156 -94.46875 69.890625 -89.269531 69.890625 -83.46875 L 55.703125 -83.46875 C 55.296875 -88.726562 53.570312 -92.945312 50.53125 -96.125 C 47.5 -99.300781 43.6875 -100.890625 39.09375 -100.890625 Z M 39.09375 -100.890625 "/></g></g></g></g></g></g></g></g></g></g></g></svg>