<?xml version="1.0" encoding="utf-8"?>
<!-- Generator: Adobe Illustrator 27.5.0, SVG Export Plug-In . SVG Version: 6.00 Build 0)  -->
<svg version="1.1" id="Layer_1" xmlns="http://www.w3.org/2000/svg" xmlns:xlink="http://www.w3.org/1999/xlink" x="0px" y="0px"
	 viewBox="0 0 2874.893 2000" style="enable-background:new 0 0 2874.893 2000;" xml:space="preserve">
<rect x="0" y="-0.001" transform="matrix(-1 -1.224647e-16 1.224647e-16 -1 2874.8931 1999.998)" style="fill:#FFFFFF;" width="2874.892" height="2000"/>
<g>
	<path style="fill:#FFE1C7;" d="M307.433,1809.896c-105.224-58.647-140.864-262.161-56.833-511.425
		c62.083-184.161-33.857-347.809-26.721-563.759c20.984-635.053,1244.641-752.556,1918.07-426.597
		c619.423,299.818,655.32,1154.282,409.352,1501.781C2140.771,1809.896,307.433,1809.896,307.433,1809.896z"/>
	<path style="fill:#3C8F7C;" d="M198.032,1808.8l2436.918,2.268c5.857,0.005,10.604,5.188,10.604,11.579l0,0
		c0,6.398-4.758,11.584-10.622,11.578l-2436.917-2.268c-5.858-0.005-10.605-5.188-10.605-11.578l0,0
		C187.411,1813.979,192.167,1808.795,198.032,1808.8z"/>
</g>
<g>
	<g>
		<g>
			<path style="fill:#F8A492;" d="M1651.656,835.148c27.003,4.376,25.407,8.786,28.881,9.252
				c4.107,0.553,52.848-23.926,52.848-23.926s144.149-71.147,151.793-75.274l104.049-130.905l80.187,36.983
				c0,0-117.017,139.173-124.419,145.306c-7.405,6.13-214.096,78.61-232.067,85.6c0,0-18.121,16.564-29.849,26.571
				c-11.728,10.004-27.408,13.97-31.151,16.249c-0.554,0.337-13.487,7.165-31.763,11.14c-15.752,3.427-2.627-7.272-2.627-7.272
				s27.865-11.764,26.494-13.89c-1.055-1.639-15.869,5.718-33.252,9.695c-4.467,1.023-8.884,2.018-12.945,2.894
				c-10.668,2.308-15.355-3.796-4.637-8.049c3.787-1.501,10.139-3.835,14.923-4.832c5.167-1.079,9.512-3.792,13.694-5.385
				c8.305-3.159,14.404-5.355,14.076-5.64c-0.428-0.372,0.743-2.206-4.041-1.274c-5.748,1.122-17.346,6.296-25.953,7.272
				c-4.877,0.55-14.982,2.343-14.982,2.343s-17.883,1.711-18.006-0.797c-0.268-5.476,10.743-8.539,17.506-8.399
				c4.262-2.172,14.957-3.746,14.957-3.746s20.742-8.187,19.537-11.257c-0.479-1.226-13.037,0.659-26.363,1.571
				c-14.085,0.966-24.287,0.961-25.04-1.764c-1.19-4.33,10.019-5.969,10.019-5.969s9.886-1.44,13.123-2.179
				c3.796-0.864,14.932-4.354,14.932-4.354s38.149-14.013,36.771-16.827c-1.376-2.816-7.678-8.71-10.369-8.694
				c-2.688,0.015-7.499,2.699-10.189,2.713c-2.689,0.017-8.477-0.502-8.88-3.889c-0.403-3.383,14.534-10.395,14.534-10.395
				S1643.863,833.886,1651.656,835.148z"/>
			<path style="fill:#355389;" d="M1916.82,695.371c0,0,25.957,23.583,36.756,31.345c8.974,6.454,52.715,27.52,52.715,27.52
				s43.514-66.634,62.543-100.047c23.083-40.542,39.068-100.827,33.611-102.461c-15.314-4.588-36.385-7.392-55.84,1.538
				C1979.275,584.168,1916.82,695.371,1916.82,695.371z"/>
			<path style="fill:#FE875E;" d="M1676.873,869.971c-11.554,1.822-23.366-0.372-28.482-10.948
				C1647.236,871.566,1666.246,877.789,1676.873,869.971z"/>
		</g>
		<path style="fill:#F7A491;" d="M2342.892,1717.959c0,0,2.878,51.017,2.897,51.121c1.057,6.479,5.225,22.48,5.225,28.369
			c0,22.12-98.139-18.777-76.143-28.581c1.99-0.889,12.42-7.599,13.073-15.126c1.009-11.6,3.567-35.066,3.567-35.066
			L2342.892,1717.959z"/>
		<path style="fill:#F7CC7F;" d="M2273.929,1769.088c0,0,23.04,6.767,34.841,8.457c11.802,1.691,27.359-12.551,35.705-8.703
			c9.189,4.232,8.829,42.353,8.829,42.353s-123.56,10.853-158.304-0.374C2181.236,1806.372,2226.826,1784.849,2273.929,1769.088z"/>
		<path style="fill:#F7A491;" d="M2506.319,1719.465c0,0,2.88,51.016,2.896,51.122c1.057,6.476,5.228,22.479,5.228,28.366
			c0,22.12-98.138-18.777-76.143-28.578c1.988-0.889,15.509-12.609,16.166-20.14c1.008-11.6,0.475-30.056,0.475-30.056
			L2506.319,1719.465z"/>
		<path style="fill:#F7CC7F;" d="M2438.541,1770.164c0,0,23.041,6.766,34.843,8.457c11.8,1.692,27.358-12.553,35.704-8.705
			c9.188,4.235,9.555,42.354,9.555,42.354s-122.679,5.039-159.029-0.374C2345.311,1809.767,2391.438,1785.922,2438.541,1770.164z"/>
		<path style="fill:#355389;" d="M2477.212,903.775c0,0,16.632,86.058,9.853,151.313c-6.777,65.252-7.309,297.051-7.309,297.051
			l31.263,370.756l-66.769,1.557c0,0-72.771-370.7-71.416-361.186c1.357,9.517-24.398-261.013-24.398-261.013l86.754-206.635
			L2477.212,903.775z"/>
		<path style="fill:#466EB6;" d="M2453.945,848.198c0,0,75.344,79.36,47.317,166.046c-11.257,34.82-116.267,367.451-117.62,394.641
			c-1.356,27.188-35.514,327.707-35.514,327.707l-71.359-2.148l-15.437-334.117l20.395-450.181l43.313-75.924L2453.945,848.198z"/>
		<path style="fill:#F47458;" d="M1996.496,589.891c24.672-27.527,78.374-66.699,78.374-66.699s31.989-27.324,45.032-31.82
			c19.195-6.618,52.072-24.273,99.627,47.796c34.031,51.575,248.767,318.625,284.017,327.615l-230.188,110.126
			c-6.305-52.604-120.078-151.967-136.449-170.509C2100.316,764.959,1973.141,615.953,1996.496,589.891z"/>
		<path style="fill:#F7A491;" d="M2007.23,478.001l71.707,41.978c0,0,2.018,61.208-21.426,77.106
			c-19.668,13.341-34.637-18.676-34.637-18.676s-26.666-36.949-46.918-48.459C1955.703,518.439,2007.23,478.001,2007.23,478.001z"/>
		<path style="fill:#F47458;" d="M2019.262,504.941c-2.699,12.77-8.939,31.231-18.611,46.439
			c-7.899-8.546-16.779-16.934-24.693-21.43c-9.348-5.313-3.398-16.784,5.711-27.599c12.864-13.396,25.563-24.35,25.563-24.35
			l13.778,8.068C2021.899,491.297,2020.159,500.69,2019.262,504.941z"/>
		<path style="fill:#F7A491;" d="M1969.883,372.795c1.204-1.492,60.148,71.883,52.878,106.298
			c-7.267,34.418-42.898,65.824-67.667,57.187c-27.394-9.55-78.33-95.929-60.061-137.87
			C1913.301,356.47,1969.883,372.795,1969.883,372.795z"/>
		<path style="fill:#13375B;" d="M1905.341,349.651c25.695-14.292,67.611-18.396,98.928-1.997
			c38.506,20.16,47.276,70.886,35.224,101.825c-12.056,30.943,1.747,48.434,1.747,48.434l-20.426-11.931
			c0,0-11.93-18.622-13.489-33.464c-1.557-14.844-23.209-12.215-33.781-18.946c-8.138-5.183-18.525-22.027-31.694-30.767
			c0,0-33.157-4.069-49.464,5.083C1864.586,423.488,1868.537,370.126,1905.341,349.651z"/>
		<path style="fill:#F7A491;" d="M1990.11,445.939c-0.188,11.008,5.013,20.018,11.621,20.126s12.119-8.728,12.31-19.733
			c0.19-11.008-5.013-20.018-11.621-20.127S1990.301,434.931,1990.11,445.939z"/>
	</g>
	<g>
		<path style="fill:#5E5E5E;" d="M1587.035,893.931h-100.751c-5.41,0-9.796-4.386-9.796-9.795l0,0c0-5.41,4.386-9.796,9.796-9.796
			h100.751c5.41,0,9.795,4.386,9.795,9.796l0,0C1596.83,889.545,1592.445,893.931,1587.035,893.931z"/>
		<path style="fill:#5E5E5E;" d="M1587.035,1002.871h-100.751c-5.41,0-9.796-4.385-9.796-9.794l0,0c0-5.41,4.386-9.795,9.796-9.795
			h100.751c5.41,0,9.795,4.385,9.795,9.795l0,0C1596.83,998.486,1592.445,1002.871,1587.035,1002.871z"/>
		
			<rect x="1601.65" y="849.733" transform="matrix(-1 -1.224647e-16 1.224647e-16 -1 3280.7051 1877.2119)" style="fill:#F47458;" width="77.404" height="177.745"/>
		<polygon style="fill:#B75742;" points="1679.055,1027.479 1748.576,963.691 1748.576,913.521 1679.055,849.733 		"/>
		<path style="fill:#F7CC7F;" d="M1849.717,953.686l-101.141,9.289v-49.454l101.141,9.289c2.389,0.219,4.217,2.223,4.217,4.622
			v21.633C1853.934,951.464,1852.105,953.467,1849.717,953.686z"/>
		<rect x="1853.934" y="927.688" style="fill:#EBB960;" width="1020.959" height="21.471"/>
		<g>
			<polygon style="fill:#EBB960;" points="1830.999,955.406 1830.999,921.09 1841.271,922.035 1841.271,954.461 			"/>
			<polygon style="fill:#EBB960;" points="1807.824,918.962 1818.098,919.906 1818.098,956.59 1807.824,957.533 			"/>
			<polygon style="fill:#EBB960;" points="1784.651,916.834 1794.924,917.778 1794.924,958.718 1784.651,959.662 			"/>
			<polygon style="fill:#EBB960;" points="1761.478,914.706 1771.75,915.649 1771.75,960.846 1761.478,961.789 			"/>
		</g>
		<polygon style="fill:#B75742;" points="1588.391,1035.05 1601.65,1027.479 1601.65,849.733 1588.391,842.163 		"/>
		
			<rect x="1562.589" y="842.163" transform="matrix(-1 -1.224647e-16 1.224647e-16 -1 3150.9795 1877.2124)" style="fill:#F47458;" width="25.802" height="192.887"/>
		<path style="fill:#D95A3F;" d="M1628.766,976.831L1628.766,976.831c-2.771,0-5.017-2.246-5.017-5.017v-66.416
			c0-2.771,2.246-5.017,5.017-5.017l0,0c2.771,0,5.018,2.246,5.018,5.017v66.416
			C1633.783,974.585,1631.537,976.831,1628.766,976.831z"/>
		<path style="fill:#D95A3F;" d="M1648.834,976.831L1648.834,976.831c-2.771,0-5.017-2.246-5.017-5.017v-66.416
			c0-2.771,2.246-5.017,5.017-5.017l0,0c2.771,0,5.017,2.246,5.017,5.017v66.416
			C1653.851,974.585,1651.604,976.831,1648.834,976.831z"/>
		<path style="fill:#D95A3F;" d="M1668.902,976.831L1668.902,976.831c-2.771,0-5.018-2.246-5.018-5.017v-66.416
			c0-2.771,2.246-5.017,5.018-5.017l0,0c2.771,0,5.017,2.246,5.017,5.017v66.416
			C1673.919,974.585,1671.673,976.831,1668.902,976.831z"/>
	</g>
	<path style="fill:#F8A492;" d="M1851.361,968.541c7.82-11.416,11.226-27.9,22.036-40.471c3.63-4.224,9.406-8.981,15.985-13.724
		c51.993-30.418,187.43-108.832,192.701-114.919c6.246-7.211,98.688-160.797,98.688-160.797l-83.024-18.811l-81.135,143.269
		c-6.774,5.377-135.566,100.564-135.566,100.564s-25.608,20.011-39.607,29.375c-7.074,4.128-13.931,6.799-19.936,8.887
		c-7.555,2.629-21.954,9.801-24.865,12.362c-3.381,2.979-10.151,9.343-14.175,13.229c-4.023,3.883-8.906,8.273-10.791,10.583
		c-1.144,1.408-4.706,3.348-7.317,4.651c-3.894,1.94-3.387,7.701,0.796,8.887c3.944,1.114,9.271-1.357,12.572-2.912
		c9.321-4.38,20.714-16.21,21.316-14.764c0.604,1.446-10.962,26.793-12.099,29.777c-1.135,2.982-14.419,32.515-15.1,39.101
		c-0.681,6.584,3.287,8.105,6.236,5.696c2.542-2.071,23.902-41.505,23.902-41.505s2.734-5.025,3.799-2.15
		c1.062,2.874-18.262,38.717-20.148,44.6c-1.888,5.884-0.385,10.709,5.057,8.644c6.613-2.508,24.884-42.039,24.884-42.039
		s2.377-4.917,4.001-3.206c1.625,1.714-15.323,31.935-15.514,35.416c-0.188,3.483,2.954,6.916,7.527,4.007
		c5.385-3.427,21.395-38.858,21.395-38.858s1.977-2.346,2.597-0.697c0.622,1.646-11.991,28.447-11.05,32.361
		c0.792,3.289,3.748,2.631,3.748,2.631C1834.875,1007.711,1843.544,979.957,1851.361,968.541z"/>
	<path style="fill:#355389;" d="M2158.037,719.758c0,0-27.037-8.603-44.381-16.543c-11.614-5.317-62.28-30.529-62.28-30.529
		s21.843-92.141,36.609-125.269c54.189-121.586,115.771-37.734,124.128-18.188C2230.801,572.947,2158.037,719.758,2158.037,719.758z
		"/>
	<g>
		<path style="fill:#F7A491;" d="M615.934,1758.344c-1.524-10.951,1.899-29.792,10.449-59.265
			c-16.931,0.039-31.167-7.478-48.471-7.215c-4.726,27.718-12.046,73.228-12.046,73.228l-0.784,35.979l120.485,0.908
			c0,0-1.003,0.518-36.525-21.99C646.417,1778.323,617.407,1768.927,615.934,1758.344z"/>
		<g>
			<path style="fill:#F7A491;" d="M464.421,1759.767c-1.525-10.952-4.116-24.667-0.317-61.188
				c-16.931,0.04-33.044-3.146-50.347-2.883c0,28.512,0.596,70.819,0.596,70.819l-0.784,35.978l120.486,0.908
				c0,0-1.003,0.517-36.525-21.99C494.904,1779.746,465.894,1770.349,464.421,1759.767z"/>
			<path style="fill:#50BFA5;" d="M412.992,1811.739h124.378c4.6-0.416,5.721-4.18,4.126-6.5
				c-3.284-4.776-27.542-16.246-43.852-23.855c-28.608,3.017-78.889-8.79-83.404-15.437
				C406.396,1787.958,410.435,1811.171,412.992,1811.739z"/>
			<path style="fill:#50BFA5;" d="M564.596,1810.317h124.378c4.6-0.416,5.722-4.18,4.126-6.5
				c-3.284-4.776-27.542-16.246-43.852-23.855c-28.608,3.018-78.889-8.791-83.403-15.438
				C558,1786.536,562.04,1809.75,564.596,1810.317z"/>
		</g>
		<path style="fill:#B75742;" d="M581.262,979.144l-36.753,20.559l-74.705,114.553l133.601,315.363c0,0-15.045,47.425-19.948,71.119
			c-5.13,24.791-17.708,237.568-17.708,237.568l56.996,0.961c0,0,54.138-226.518,63.306-300.038
			c11.133-89.281-56.656-301.908-56.656-301.908c-12.642-43.382-39.898-132.626-39.898-132.626S582.829,982.949,581.262,979.144z"/>
		<path style="fill:#F47458;" d="M460.458,948.759c0,0-8.613,18.438-23.811,49.174c-9.265,18.739-25.271,33.428-36.731,56.382
			c-21.689,43.438-32.034,89.001-20.04,140.67c0,0,44.844,171.735,43.065,234.5c-0.657,23.145-8.574,64.846-13.64,93.036
			c-4.479,24.921-2.905,209.807-2.905,209.807l60.559,1.174l48.74-303.242l36.369-268.846l40.505-150.806L460.458,948.759z"/>
		<path style="fill:#13375B;" d="M734.029,664.175c29.489-35.576,36.791-80.833,65.339-117.475
			c10.561-13.554,31.26-29.464,46.548-37.305c67.982-34.861,132.985,16.799,144.006,88.647c5.878,38.326,5.008,86.75-6.072,136.66
			c-10.699,0.062-21.042-0.154-31.052-0.611l-5.075-32.424l-6.741,31.46c-59.021-5.665-120.508-21.085-155.38-37.772l6.322-30.555
			l-18.363,24.485C757.962,681.006,744.86,672.39,734.029,664.175z"/>
		<path style="fill:#F08E76;" d="M795.167,749.229c0,0,128.483,78.929,159.324,90.785c24.128,9.275,147.953,40.938,152.45,42.166
			c4.495,1.227,52.201-35.487,54.851-28.428c2.65,7.059-25.377,17.513-20.972,24.908c4.404,7.396,76.964,23.899,74.036,28.578
			c-5.479,8.755-44.788-8.41-46.574-3.839c-1.786,4.571,42.67,14.153,42.459,22.846c-0.212,8.694-41.26-12.973-44.322-10.285
			c-3.063,2.688,35.903,25.493,28.841,30.826c-3.834,2.896-34.163-21.111-36.084-15.838c-1.92,5.272,18.439,27.192,13.696,30.103
			c-4.744,2.911-14.603-20.633-29.09-26.688c-14.486-6.054-21.87-17.843-47.689-20.794c-25.817-2.95-117.922-2.786-166.604-25.043
			c-48.68-22.256-152.378-65.677-152.378-65.677L795.167,749.229z"/>
		<path style="fill:#133742;" d="M825.465,850.535c0,0-91.155-38.164-115.544-59.802c-24.389-21.638-27.849-70.337-3.625-86.228
			c24.224-15.891,153.279,77.424,153.279,77.424L825.465,850.535z"/>
		<path style="fill:#F7A491;" d="M832.671,635.143c0,0-14.831-9.43-15.505-9.879c-0.674-0.45-9.438,10.436-10.337,12.296
			c-0.899,1.86-3.371,18.939-1.348,19.837c2.023,0.899,13.005,6.511,14.03,5.39C820.536,661.667,832.671,635.143,832.671,635.143z"
			/>
		<path style="fill:#F7A491;" d="M759.635,662.107c0,0,53.417-7.956,74.748-30.674l19.094,47.16c0,0-32.445,26.242-35.4,43.062
			c-2.955,16.821-4.983,73.468-4.983,73.468l-28.479-15.463c0,0-32.624-71.44-31.589-79.928
			C754.06,691.244,759.635,662.107,759.635,662.107z"/>
		<path style="fill:#466EB6;" d="M759.635,662.107c0,0-60.355-9.691-138.884,47.697s-178.326,220.166-210.76,319.252
			c0,0,143.273,24.387,194.715,11.035c0,0-5.873-54.877,8.638-75.143c14.512-20.266,21.511-60.104,66.278-75.967
			c19.067-6.756,40.415-7.648,60.582-10.266c36.42-4.727,65.573-32.506,71.928-68.677l0.361-2.055
			c1.692-9.633,0.566-19.548-3.243-28.556L759.635,662.107z"/>
		<path style="fill:#F47458;" d="M836.57,694.143c-6.509-17.748-5.612-56.769-5.612-56.769l0.776-3.361
			c0.923-0.84,1.818-1.695,2.648-2.58l19.094,47.16C853.477,678.593,845.163,685.32,836.57,694.143z"/>
		<path style="fill:#F7A491;" d="M894.681,533.863c0,0-27.967-3.238-45.499,19.488c-17.531,22.726-36.427,93.004,7.123,131.214
			c43.55,38.209,86.581-5.042,92.96-50.899C955.646,587.809,958.126,532.208,894.681,533.863z"/>
		<path style="fill:#F7A491;" d="M962.149,632.988c-5.198,10.128-13.924,15.736-19.489,12.526
			c-5.565-3.21-5.863-14.023-0.664-24.151c5.198-10.128,13.924-15.736,19.489-12.527
			C967.049,612.047,967.347,622.86,962.149,632.988z"/>
		<path style="fill:#13375B;" d="M897.81,526.351c0,0-37.365,66.832-64.095,69.919c-26.731,3.088-30.24,38.601-30.24,38.601
			s9.557-81.829,36.02-97.609C865.957,521.481,897.81,526.351,897.81,526.351z"/>
		<path style="fill:#F7A491;" d="M840.724,613.063c2.174,11.868-2.198,22.752-9.766,24.31c-7.567,1.558-15.463-6.801-17.637-18.669
			c-2.174-11.868,2.198-22.752,9.765-24.31C830.653,592.837,838.55,601.195,840.724,613.063z"/>
		<path style="fill:#13375B;" d="M772.273,594.207c17.552-33.803,25.703-22.018,24.624-17.353
			c-1.08,4.665-5.274,50.436-4.076,50.322c1.199-0.115,25.867-11.293,25.867-11.293l0.823,16.51c0,0-12.782,40.174-6.253,66.858
			c0,0-25.177,0.689-49.905-11.505l1.604-20.836l-12.797,14.316c-6.539-4.483-12.757-10.068-18.13-17.051
			C734.029,664.175,754.72,628.01,772.273,594.207z"/>
		<g>
			<rect x="0" y="962.475" style="fill:#EBB960;" width="1076.801" height="21.471"/>
			<path style="fill:#B75742;" d="M1274.513,1108.54h-200.287c-11.587,0-20.98-9.394-20.98-20.98V858.86
				c0-11.587,9.393-20.98,20.98-20.98h200.287c11.587,0,20.98,9.393,20.98,20.98v228.699
				C1295.493,1099.146,1286.1,1108.54,1274.513,1108.54z"/>
			<g>
				<path style="fill:#F47458;" d="M1369.496,1108.54H1169.21c-11.587,0-20.98-9.394-20.98-20.98V858.86
					c0-11.587,9.393-20.98,20.98-20.98h200.286c11.587,0,20.98,9.393,20.98,20.98v228.699
					C1390.477,1099.146,1381.083,1108.54,1369.496,1108.54z"/>
				<ellipse style="fill:#F7947E;" cx="1271.715" cy="973.21" rx="80.513" ry="102.132"/>
				<path style="fill:#AB4B37;" d="M1271.715,871.079c-2.696,0-5.359,0.175-7.986,0.503c40.718,5.086,72.527,48.642,72.527,101.629
					c0,52.987-31.809,96.542-72.527,101.628c2.627,0.329,5.29,0.504,7.986,0.504c44.466,0,80.513-45.726,80.513-102.131
					C1352.229,916.804,1316.182,871.079,1271.715,871.079z"/>
				<path style="fill:#AB4B37;" d="M1281.51,918.74c0,5.409-4.385,9.795-9.795,9.795s-9.795-4.386-9.795-9.795
					c0-5.41,4.386-9.796,9.795-9.796S1281.51,913.331,1281.51,918.74z"/>
				<path style="fill:#AB4B37;" d="M1281.51,1027.681c0,5.409-4.385,9.795-9.795,9.795s-9.795-4.386-9.795-9.795
					c0-5.41,4.386-9.795,9.795-9.795S1281.51,1022.271,1281.51,1027.681z"/>
				<path style="fill:#733021;" d="M1266.817,910.303c-2.915,1.697-4.898,4.82-4.898,8.436s1.982,6.74,4.898,8.437
					c2.916-1.697,4.898-4.82,4.898-8.437S1269.733,912,1266.817,910.303z"/>
				<path style="fill:#733021;" d="M1266.817,1019.244c-2.915,1.696-4.898,4.82-4.898,8.436c0,3.616,1.982,6.739,4.898,8.437
					c2.916-1.697,4.898-4.82,4.898-8.437C1271.715,1024.064,1269.733,1020.94,1266.817,1019.244z"/>
			</g>
		</g>
		<path style="fill:#F7A491;" d="M789.311,782.76c0,0,111.622,104.546,139.857,122.597c22.089,14.121,138.69,70.754,142.91,72.89
			c4.216,2.131,59.083-24.651,60.281-17.098c1.198,7.553-28.777,12.243-25.903,20.487c2.873,8.244,71.617,39.392,67.756,43.447
			c-7.224,7.585-42.793-17.461-45.498-13.283c-2.704,4.178,39.522,22.738,37.545,31.332c-1.979,8.596-38.361-21.277-41.95-19.229
			c-3.59,2.048,30.493,32.629,22.392,36.492c-4.398,2.098-29.655-27.922-32.635-23.072c-2.979,4.848,12.795,30.768,7.49,32.696
			c-5.306,1.928-10.316-23.471-23.48-32.433c-13.164-8.959-18.104-22.175-43.159-30.356c-25.054-8.18-116.608-26.741-160.456-58.753
			c-43.847-32.011-138.059-96.236-138.059-96.236L789.311,782.76z"/>
		<path style="fill:#184655;" d="M838.221,815.054l-58.696,65.539c0,0-62.905-44.447-87.955-70.08
			c-55.37-56.658-21.302-134.087,32.972-99.056C764.517,737.258,838.221,815.054,838.221,815.054z"/>
	</g>
</g>
</svg>
